<mxfile host="app.diagrams.net" agent="Mozilla/5.0 (Windows NT 10.0; Win64; x64) AppleWebKit/537.36 (KHTML, like Gecko) Chrome/128.0.0.0 Safari/537.36 Edg/128.0.0.0" version="24.7.16">
  <diagram name="Страница — 1" id="zW4MrdNnY_COWWRTuxkU">
    <mxGraphModel dx="2665" dy="1443" grid="1" gridSize="10" guides="1" tooltips="1" connect="1" arrows="1" fold="1" page="1" pageScale="1" pageWidth="827" pageHeight="1169" math="0" shadow="0">
      <root>
        <mxCell id="0" />
        <mxCell id="1" parent="0" />
        <mxCell id="2" value="Начало" style="whiteSpace=wrap;strokeWidth=2;" parent="1" vertex="1">
          <mxGeometry x="8" y="285" width="113" height="49" as="geometry" />
        </mxCell>
        <mxCell id="3" value="Получить ссылку на ОЛХ" style="rounded=1;arcSize=40;strokeWidth=2" parent="1" vertex="1">
          <mxGeometry x="320" y="285" width="214" height="49" as="geometry" />
        </mxCell>
        <mxCell id="4" value="Ссылка получена?" style="rhombus;strokeWidth=2;whiteSpace=wrap;" parent="1" vertex="1">
          <mxGeometry x="435" y="8" width="182" height="182" as="geometry" />
        </mxCell>
        <mxCell id="5" value="Отправить запрос на страницу" style="rounded=1;arcSize=40;strokeWidth=2" parent="1" vertex="1">
          <mxGeometry x="699" y="66" width="184" height="67" as="geometry" />
        </mxCell>
        <mxCell id="6" value="Страница загружена?" style="rhombus;strokeWidth=2;whiteSpace=wrap;" parent="1" vertex="1">
          <mxGeometry x="964" y="59" width="206" height="206" as="geometry" />
        </mxCell>
        <mxCell id="7" value="Извлечь цену из HTML" style="rounded=1;arcSize=40;strokeWidth=2" parent="1" vertex="1">
          <mxGeometry x="1251" y="207" width="196" height="49" as="geometry" />
        </mxCell>
        <mxCell id="ff-OdEwVdmUYa32NQQNA-27" value="" style="edgeStyle=orthogonalEdgeStyle;rounded=0;orthogonalLoop=1;jettySize=auto;html=1;" edge="1" parent="1" source="8" target="ff-OdEwVdmUYa32NQQNA-26">
          <mxGeometry relative="1" as="geometry" />
        </mxCell>
        <mxCell id="8" value="Цена извлечена?" style="rhombus;strokeWidth=2;whiteSpace=wrap;" parent="1" vertex="1">
          <mxGeometry x="1497" y="174" width="173" height="173" as="geometry" />
        </mxCell>
        <mxCell id="ff-OdEwVdmUYa32NQQNA-29" value="" style="edgeStyle=orthogonalEdgeStyle;rounded=0;orthogonalLoop=1;jettySize=auto;html=1;" edge="1" parent="1" source="9" target="ff-OdEwVdmUYa32NQQNA-28">
          <mxGeometry relative="1" as="geometry" />
        </mxCell>
        <mxCell id="9" value="Обработать цену" style="rounded=1;arcSize=40;strokeWidth=2" parent="1" vertex="1">
          <mxGeometry x="1745" y="236" width="155" height="49" as="geometry" />
        </mxCell>
        <mxCell id="10" value="Цена обработана успешно?" style="rhombus;strokeWidth=2;whiteSpace=wrap;" parent="1" vertex="1">
          <mxGeometry x="1950" y="197" width="249" height="249" as="geometry" />
        </mxCell>
        <mxCell id="11" value="Если цена изменена отправить по подписке данные&#xa;на почту" style="rounded=1;arcSize=40;strokeWidth=2" parent="1" vertex="1">
          <mxGeometry x="2274" y="288" width="306" height="332" as="geometry" />
        </mxCell>
        <mxCell id="12" value="Завершение" style="whiteSpace=wrap;strokeWidth=2;" parent="1" vertex="1">
          <mxGeometry x="2640" y="298" width="151" height="49" as="geometry" />
        </mxCell>
        <mxCell id="13" value="" style="curved=1;startArrow=none;endArrow=block;entryX=0;entryY=0.51;exitX=0;exitY=0.25;exitDx=0;exitDy=0;" parent="1" source="3" target="3" edge="1">
          <mxGeometry relative="1" as="geometry">
            <Array as="points">
              <mxPoint x="220" y="530" />
            </Array>
            <mxPoint x="270" y="290" as="sourcePoint" />
          </mxGeometry>
        </mxCell>
        <mxCell id="14" value="" style="curved=1;startArrow=none;endArrow=block;exitX=0.57;exitY=0.01;entryX=0;entryY=0.5;" parent="1" source="3" target="4" edge="1">
          <mxGeometry relative="1" as="geometry">
            <Array as="points">
              <mxPoint x="410" y="99" />
            </Array>
          </mxGeometry>
        </mxCell>
        <mxCell id="15" value="Да" style="curved=1;startArrow=none;endArrow=block;exitX=1;exitY=0.5;entryX=0;entryY=0.49;" parent="1" source="4" target="5" edge="1">
          <mxGeometry relative="1" as="geometry">
            <Array as="points" />
          </mxGeometry>
        </mxCell>
        <mxCell id="16" value="" style="curved=1;startArrow=none;endArrow=block;exitX=1;exitY=0.49;entryX=0;entryY=0.28;" parent="1" source="5" target="6" edge="1">
          <mxGeometry relative="1" as="geometry">
            <Array as="points">
              <mxPoint x="923" y="99" />
            </Array>
          </mxGeometry>
        </mxCell>
        <mxCell id="17" value="Да" style="curved=1;startArrow=none;endArrow=block;exitX=1;exitY=0.5;entryX=0.25;entryY=-0.01;" parent="1" source="6" target="7" edge="1">
          <mxGeometry relative="1" as="geometry">
            <Array as="points">
              <mxPoint x="1210" y="162" />
            </Array>
          </mxGeometry>
        </mxCell>
        <mxCell id="18" value="" style="curved=1;startArrow=none;endArrow=block;exitX=1;exitY=0.49;entryX=0;entryY=0.37;" parent="1" source="7" target="8" edge="1">
          <mxGeometry relative="1" as="geometry">
            <Array as="points">
              <mxPoint x="1472" y="231" />
            </Array>
          </mxGeometry>
        </mxCell>
        <mxCell id="19" value="Да" style="curved=1;startArrow=none;endArrow=block;exitX=1;exitY=0.5;entryX=0;entryY=0.51;" parent="1" source="8" target="9" edge="1">
          <mxGeometry relative="1" as="geometry">
            <Array as="points" />
          </mxGeometry>
        </mxCell>
        <mxCell id="20" value="" style="curved=1;startArrow=none;endArrow=block;exitX=1;exitY=0.51;entryX=0;entryY=0.3;" parent="1" source="9" target="10" edge="1">
          <mxGeometry relative="1" as="geometry">
            <Array as="points">
              <mxPoint x="1925" y="261" />
            </Array>
          </mxGeometry>
        </mxCell>
        <mxCell id="21" value="Да" style="curved=1;startArrow=none;endArrow=block;exitX=1;exitY=0.5;entryX=0;entryY=0.5;" parent="1" source="10" target="11" edge="1">
          <mxGeometry relative="1" as="geometry">
            <Array as="points" />
          </mxGeometry>
        </mxCell>
        <mxCell id="22" value="" style="curved=1;startArrow=none;endArrow=block;exitX=1;exitY=0.5;entryX=0;entryY=0.5;" parent="1" source="11" target="12" edge="1">
          <mxGeometry relative="1" as="geometry">
            <Array as="points" />
          </mxGeometry>
        </mxCell>
        <mxCell id="23" value="Нет" style="curved=1;startArrow=none;endArrow=block;exitX=0;exitY=0.72;entryX=0.68;entryY=0.01;" parent="1" source="6" target="3" edge="1">
          <mxGeometry relative="1" as="geometry">
            <Array as="points">
              <mxPoint x="923" y="225" />
              <mxPoint x="410" y="225" />
            </Array>
          </mxGeometry>
        </mxCell>
        <mxCell id="24" value="Нет" style="curved=1;startArrow=none;endArrow=block;exitX=0.28;exitY=0.99;entryX=1;entryY=0.51;" parent="1" source="7" target="3" edge="1">
          <mxGeometry relative="1" as="geometry">
            <Array as="points">
              <mxPoint x="1210" y="310" />
            </Array>
          </mxGeometry>
        </mxCell>
        <mxCell id="25" value="Нет" style="curved=1;startArrow=none;endArrow=block;exitX=0;exitY=0.93;entryX=0.83;entryY=1.01;" parent="1" source="8" target="3" edge="1">
          <mxGeometry relative="1" as="geometry">
            <Array as="points">
              <mxPoint x="1472" y="355" />
              <mxPoint x="410" y="355" />
            </Array>
          </mxGeometry>
        </mxCell>
        <mxCell id="26" value="Нет" style="curved=1;startArrow=none;endArrow=block;exitX=0;exitY=0.87;entryX=0.63;entryY=1.01;" parent="1" source="10" target="3" edge="1">
          <mxGeometry relative="1" as="geometry">
            <Array as="points">
              <mxPoint x="1925" y="432" />
              <mxPoint x="410" y="432" />
            </Array>
          </mxGeometry>
        </mxCell>
        <mxCell id="ff-OdEwVdmUYa32NQQNA-26" value="Сохранена в Базу данных&lt;div&gt;&lt;br&gt;&lt;/div&gt;" style="rhombus;whiteSpace=wrap;html=1;strokeWidth=2;" vertex="1" parent="1">
          <mxGeometry x="1470" y="460" width="226.5" height="186.5" as="geometry" />
        </mxCell>
        <mxCell id="ff-OdEwVdmUYa32NQQNA-30" style="edgeStyle=orthogonalEdgeStyle;rounded=0;orthogonalLoop=1;jettySize=auto;html=1;" edge="1" parent="1" source="ff-OdEwVdmUYa32NQQNA-28" target="ff-OdEwVdmUYa32NQQNA-26">
          <mxGeometry relative="1" as="geometry" />
        </mxCell>
        <mxCell id="ff-OdEwVdmUYa32NQQNA-31" style="edgeStyle=orthogonalEdgeStyle;rounded=0;orthogonalLoop=1;jettySize=auto;html=1;exitX=1;exitY=0.5;exitDx=0;exitDy=0;" edge="1" parent="1" source="ff-OdEwVdmUYa32NQQNA-28" target="10">
          <mxGeometry relative="1" as="geometry" />
        </mxCell>
        <mxCell id="ff-OdEwVdmUYa32NQQNA-28" value="Если цена изменена идет перезапись в базу данных" style="rhombus;whiteSpace=wrap;html=1;rounded=1;arcSize=40;strokeWidth=2;" vertex="1" parent="1">
          <mxGeometry x="1820" y="600" width="240" height="240" as="geometry" />
        </mxCell>
        <mxCell id="ff-OdEwVdmUYa32NQQNA-32" style="edgeStyle=orthogonalEdgeStyle;rounded=0;orthogonalLoop=1;jettySize=auto;html=1;exitX=1;exitY=0.5;exitDx=0;exitDy=0;" edge="1" parent="1" source="11" target="11">
          <mxGeometry relative="1" as="geometry" />
        </mxCell>
        <mxCell id="ff-OdEwVdmUYa32NQQNA-35" value="" style="edgeStyle=orthogonalEdgeStyle;rounded=0;orthogonalLoop=1;jettySize=auto;html=1;" edge="1" parent="1" source="ff-OdEwVdmUYa32NQQNA-33" target="ff-OdEwVdmUYa32NQQNA-34">
          <mxGeometry relative="1" as="geometry" />
        </mxCell>
        <mxCell id="ff-OdEwVdmUYa32NQQNA-33" value="ССылка на товар" style="whiteSpace=wrap;strokeWidth=2;" vertex="1" parent="1">
          <mxGeometry x="160" y="411" width="113" height="49" as="geometry" />
        </mxCell>
        <mxCell id="ff-OdEwVdmUYa32NQQNA-36" style="edgeStyle=orthogonalEdgeStyle;rounded=0;orthogonalLoop=1;jettySize=auto;html=1;" edge="1" parent="1" source="ff-OdEwVdmUYa32NQQNA-34" target="2">
          <mxGeometry relative="1" as="geometry" />
        </mxCell>
        <mxCell id="ff-OdEwVdmUYa32NQQNA-38" value="" style="edgeStyle=orthogonalEdgeStyle;rounded=0;orthogonalLoop=1;jettySize=auto;html=1;" edge="1" parent="1" source="ff-OdEwVdmUYa32NQQNA-34" target="ff-OdEwVdmUYa32NQQNA-37">
          <mxGeometry relative="1" as="geometry" />
        </mxCell>
        <mxCell id="ff-OdEwVdmUYa32NQQNA-34" value="Почта&lt;div&gt;&lt;br&gt;&lt;/div&gt;" style="whiteSpace=wrap;html=1;strokeWidth=2;" vertex="1" parent="1">
          <mxGeometry x="150" y="170.5" width="130" height="85.5" as="geometry" />
        </mxCell>
        <mxCell id="ff-OdEwVdmUYa32NQQNA-39" style="edgeStyle=orthogonalEdgeStyle;rounded=0;orthogonalLoop=1;jettySize=auto;html=1;exitX=0.75;exitY=1;exitDx=0;exitDy=0;entryX=0.25;entryY=0;entryDx=0;entryDy=0;" edge="1" parent="1" source="ff-OdEwVdmUYa32NQQNA-37" target="3">
          <mxGeometry relative="1" as="geometry" />
        </mxCell>
        <mxCell id="ff-OdEwVdmUYa32NQQNA-37" value="&lt;div&gt;Подтверждение подписки&lt;/div&gt;" style="whiteSpace=wrap;html=1;strokeWidth=2;" vertex="1" parent="1">
          <mxGeometry x="260" y="20" width="130" height="85.5" as="geometry" />
        </mxCell>
      </root>
    </mxGraphModel>
  </diagram>
</mxfile>
